<mxfile host="Electron" agent="Mozilla/5.0 (X11; Linux x86_64) AppleWebKit/537.36 (KHTML, like Gecko) draw.io/26.1.1 Chrome/132.0.6834.210 Electron/34.3.3 Safari/537.36" version="26.1.1" pages="5">
  <diagram id="73IL2_rmbeBawdAWK9Hk" name="UDP">
    <mxGraphModel dx="1673" dy="-102" grid="1" gridSize="10" guides="1" tooltips="1" connect="1" arrows="1" fold="1" page="1" pageScale="1" pageWidth="850" pageHeight="1100" math="0" shadow="0">
      <root>
        <mxCell id="0" />
        <mxCell id="1" parent="0" />
        <mxCell id="Xi26tniJu_gn4zGZqMe1-1" value="&lt;font style=&quot;font-size: 17px;&quot;&gt;&lt;b&gt;UD&lt;/b&gt;&lt;/font&gt;&lt;b style=&quot;font-size: 17px; background-color: transparent; color: light-dark(rgb(0, 0, 0), rgb(255, 255, 255));&quot;&gt;P:&lt;/b&gt;" style="text;html=1;align=center;verticalAlign=middle;resizable=0;points=[];autosize=1;strokeColor=none;fillColor=none;" vertex="1" parent="1">
          <mxGeometry x="30" y="1210" width="70" height="30" as="geometry" />
        </mxCell>
        <mxCell id="Xi26tniJu_gn4zGZqMe1-2" value="udp_listener" style="rounded=1;whiteSpace=wrap;html=1;" vertex="1" parent="1">
          <mxGeometry x="180" y="1240" width="120" height="40" as="geometry" />
        </mxCell>
        <mxCell id="Xi26tniJu_gn4zGZqMe1-3" value="Set up the socket." style="shape=hexagon;perimeter=hexagonPerimeter2;whiteSpace=wrap;html=1;fixedSize=1;" vertex="1" parent="1">
          <mxGeometry x="180" y="1320" width="120" height="40" as="geometry" />
        </mxCell>
        <mxCell id="Xi26tniJu_gn4zGZqMe1-4" value="Receive message on socket." style="rounded=0;whiteSpace=wrap;html=1;" vertex="1" parent="1">
          <mxGeometry x="180" y="1400" width="120" height="40" as="geometry" />
        </mxCell>
        <mxCell id="Xi26tniJu_gn4zGZqMe1-5" value="Match key:&lt;br data-end=&quot;13&quot; data-start=&quot;10&quot;&gt;&lt;br/&gt;Is the broadcast&amp;nbsp;&lt;div&gt;from &#39;us&#39;?&lt;/div&gt;" style="rhombus;whiteSpace=wrap;html=1;" vertex="1" parent="1">
          <mxGeometry x="180" y="1480" width="120" height="120" as="geometry" />
        </mxCell>
        <mxCell id="Xi26tniJu_gn4zGZqMe1-6" value="Is the&amp;nbsp;&lt;div&gt;broadcaster&amp;nbsp;&lt;div&gt;the networkâ€™s&amp;nbsp;&lt;/div&gt;&lt;div&gt;master?&lt;/div&gt;&lt;/div&gt;" style="rhombus;whiteSpace=wrap;html=1;" vertex="1" parent="1">
          <mxGeometry x="180" y="1640" width="120" height="120" as="geometry" />
        </mxCell>
        <mxCell id="Xi26tniJu_gn4zGZqMe1-7" value="Reset udp_wd" style="rounded=0;whiteSpace=wrap;html=1;" vertex="1" parent="1">
          <mxGeometry x="110" y="1800" width="90" height="40" as="geometry" />
        </mxCell>
        <mxCell id="Xi26tniJu_gn4zGZqMe1-8" value="Does the&amp;nbsp;&lt;div&gt;broadcaster have&amp;nbsp;&lt;/div&gt;&lt;div&gt;an ID less than&amp;nbsp;&lt;/div&gt;&lt;div&gt;or equal to&amp;nbsp;&lt;/div&gt;&lt;div&gt;the master?&lt;/div&gt;" style="rhombus;whiteSpace=wrap;html=1;" vertex="1" parent="1">
          <mxGeometry x="172.5" y="1870" width="135" height="140" as="geometry" />
        </mxCell>
        <mxCell id="Xi26tniJu_gn4zGZqMe1-9" value="Send mottat WV&lt;div&gt;til update_wv&lt;/div&gt;" style="shape=parallelogram;perimeter=parallelogramPerimeter;whiteSpace=wrap;html=1;fixedSize=1;" vertex="1" parent="1">
          <mxGeometry x="180" y="2040" width="120" height="40" as="geometry" />
        </mxCell>
        <mxCell id="Xi26tniJu_gn4zGZqMe1-10" value="" style="endArrow=classic;html=1;rounded=0;exitX=0.5;exitY=1;exitDx=0;exitDy=0;" edge="1" parent="1" source="Xi26tniJu_gn4zGZqMe1-2" target="Xi26tniJu_gn4zGZqMe1-3">
          <mxGeometry width="50" height="50" relative="1" as="geometry">
            <mxPoint x="270" y="1440" as="sourcePoint" />
            <mxPoint x="320" y="1390" as="targetPoint" />
          </mxGeometry>
        </mxCell>
        <mxCell id="Xi26tniJu_gn4zGZqMe1-11" value="" style="endArrow=classic;html=1;rounded=0;exitX=0.5;exitY=1;exitDx=0;exitDy=0;entryX=0.5;entryY=0;entryDx=0;entryDy=0;" edge="1" parent="1" source="Xi26tniJu_gn4zGZqMe1-3" target="Xi26tniJu_gn4zGZqMe1-4">
          <mxGeometry width="50" height="50" relative="1" as="geometry">
            <mxPoint x="270" y="1440" as="sourcePoint" />
            <mxPoint x="320" y="1390" as="targetPoint" />
          </mxGeometry>
        </mxCell>
        <mxCell id="Xi26tniJu_gn4zGZqMe1-12" value="" style="endArrow=classic;html=1;rounded=0;exitX=0.5;exitY=1;exitDx=0;exitDy=0;entryX=0.5;entryY=0;entryDx=0;entryDy=0;" edge="1" parent="1" source="Xi26tniJu_gn4zGZqMe1-4" target="Xi26tniJu_gn4zGZqMe1-5">
          <mxGeometry width="50" height="50" relative="1" as="geometry">
            <mxPoint x="270" y="1580" as="sourcePoint" />
            <mxPoint x="320" y="1530" as="targetPoint" />
          </mxGeometry>
        </mxCell>
        <mxCell id="Xi26tniJu_gn4zGZqMe1-13" value="" style="endArrow=classic;html=1;rounded=0;exitX=1;exitY=0.5;exitDx=0;exitDy=0;" edge="1" parent="1" source="Xi26tniJu_gn4zGZqMe1-5">
          <mxGeometry width="50" height="50" relative="1" as="geometry">
            <mxPoint x="270" y="1440" as="sourcePoint" />
            <mxPoint x="240" y="1380" as="targetPoint" />
            <Array as="points">
              <mxPoint x="340" y="1540" />
              <mxPoint x="340" y="1380" />
            </Array>
          </mxGeometry>
        </mxCell>
        <mxCell id="Xi26tniJu_gn4zGZqMe1-14" value="No" style="edgeLabel;html=1;align=center;verticalAlign=middle;resizable=0;points=[];" vertex="1" connectable="0" parent="Xi26tniJu_gn4zGZqMe1-13">
          <mxGeometry x="-0.9472" relative="1" as="geometry">
            <mxPoint x="3" y="-10" as="offset" />
          </mxGeometry>
        </mxCell>
        <mxCell id="Xi26tniJu_gn4zGZqMe1-15" value="" style="endArrow=classic;html=1;rounded=0;exitX=0.5;exitY=1;exitDx=0;exitDy=0;entryX=0.5;entryY=0;entryDx=0;entryDy=0;" edge="1" parent="1" source="Xi26tniJu_gn4zGZqMe1-5" target="Xi26tniJu_gn4zGZqMe1-6">
          <mxGeometry width="50" height="50" relative="1" as="geometry">
            <mxPoint x="270" y="1650" as="sourcePoint" />
            <mxPoint x="320" y="1600" as="targetPoint" />
          </mxGeometry>
        </mxCell>
        <mxCell id="Xi26tniJu_gn4zGZqMe1-16" value="Yes" style="edgeLabel;html=1;align=center;verticalAlign=middle;resizable=0;points=[];" vertex="1" connectable="0" parent="Xi26tniJu_gn4zGZqMe1-15">
          <mxGeometry x="-0.169" y="-1" relative="1" as="geometry">
            <mxPoint x="11" as="offset" />
          </mxGeometry>
        </mxCell>
        <mxCell id="Xi26tniJu_gn4zGZqMe1-17" value="" style="endArrow=classic;html=1;rounded=0;exitX=0.5;exitY=1;exitDx=0;exitDy=0;" edge="1" parent="1" source="Xi26tniJu_gn4zGZqMe1-6" target="Xi26tniJu_gn4zGZqMe1-8">
          <mxGeometry width="50" height="50" relative="1" as="geometry">
            <mxPoint x="270" y="1780" as="sourcePoint" />
            <mxPoint x="320" y="1730" as="targetPoint" />
          </mxGeometry>
        </mxCell>
        <mxCell id="Xi26tniJu_gn4zGZqMe1-18" value="No" style="edgeLabel;html=1;align=center;verticalAlign=middle;resizable=0;points=[];" vertex="1" connectable="0" parent="Xi26tniJu_gn4zGZqMe1-17">
          <mxGeometry x="-0.5391" y="1" relative="1" as="geometry">
            <mxPoint x="9" y="-8" as="offset" />
          </mxGeometry>
        </mxCell>
        <mxCell id="Xi26tniJu_gn4zGZqMe1-19" value="" style="endArrow=classic;html=1;rounded=0;exitX=0;exitY=0.5;exitDx=0;exitDy=0;entryX=0.444;entryY=0;entryDx=0;entryDy=0;entryPerimeter=0;" edge="1" parent="1" source="Xi26tniJu_gn4zGZqMe1-6" target="Xi26tniJu_gn4zGZqMe1-7">
          <mxGeometry width="50" height="50" relative="1" as="geometry">
            <mxPoint x="270" y="1780" as="sourcePoint" />
            <mxPoint x="320" y="1730" as="targetPoint" />
            <Array as="points">
              <mxPoint x="150" y="1700" />
            </Array>
          </mxGeometry>
        </mxCell>
        <mxCell id="Xi26tniJu_gn4zGZqMe1-20" value="Yes" style="edgeLabel;html=1;align=center;verticalAlign=middle;resizable=0;points=[];" vertex="1" connectable="0" parent="Xi26tniJu_gn4zGZqMe1-19">
          <mxGeometry x="-0.7873" y="2" relative="1" as="geometry">
            <mxPoint x="-1" y="8" as="offset" />
          </mxGeometry>
        </mxCell>
        <mxCell id="Xi26tniJu_gn4zGZqMe1-21" value="" style="endArrow=classic;html=1;rounded=0;exitX=0.456;exitY=1.036;exitDx=0;exitDy=0;exitPerimeter=0;" edge="1" parent="1" source="Xi26tniJu_gn4zGZqMe1-7">
          <mxGeometry width="50" height="50" relative="1" as="geometry">
            <mxPoint x="270" y="1850" as="sourcePoint" />
            <mxPoint x="240" y="1860" as="targetPoint" />
            <Array as="points">
              <mxPoint x="150" y="1860" />
            </Array>
          </mxGeometry>
        </mxCell>
        <mxCell id="Xi26tniJu_gn4zGZqMe1-22" value="" style="endArrow=classic;html=1;rounded=0;exitX=0.5;exitY=1;exitDx=0;exitDy=0;entryX=0.5;entryY=0;entryDx=0;entryDy=0;" edge="1" parent="1" source="Xi26tniJu_gn4zGZqMe1-8" target="Xi26tniJu_gn4zGZqMe1-9">
          <mxGeometry width="50" height="50" relative="1" as="geometry">
            <mxPoint x="270" y="1990" as="sourcePoint" />
            <mxPoint x="320" y="1940" as="targetPoint" />
          </mxGeometry>
        </mxCell>
        <mxCell id="Xi26tniJu_gn4zGZqMe1-23" value="Yes" style="edgeLabel;html=1;align=center;verticalAlign=middle;resizable=0;points=[];" vertex="1" connectable="0" parent="Xi26tniJu_gn4zGZqMe1-22">
          <mxGeometry x="-0.1" y="1" relative="1" as="geometry">
            <mxPoint x="9" as="offset" />
          </mxGeometry>
        </mxCell>
        <mxCell id="Xi26tniJu_gn4zGZqMe1-24" value="" style="endArrow=classic;html=1;rounded=0;" edge="1" parent="1">
          <mxGeometry width="50" height="50" relative="1" as="geometry">
            <mxPoint x="307.5" y="1940" as="sourcePoint" />
            <mxPoint x="340" y="1540" as="targetPoint" />
            <Array as="points">
              <mxPoint x="340" y="1940" />
            </Array>
          </mxGeometry>
        </mxCell>
        <mxCell id="Xi26tniJu_gn4zGZqMe1-25" value="No" style="edgeLabel;html=1;align=center;verticalAlign=middle;resizable=0;points=[];" vertex="1" connectable="0" parent="Xi26tniJu_gn4zGZqMe1-24">
          <mxGeometry x="-0.9378" y="-1" relative="1" as="geometry">
            <mxPoint x="-3" y="-11" as="offset" />
          </mxGeometry>
        </mxCell>
        <mxCell id="Xi26tniJu_gn4zGZqMe1-26" value="" style="endArrow=classic;html=1;rounded=0;exitX=0.5;exitY=1;exitDx=0;exitDy=0;" edge="1" parent="1" source="Xi26tniJu_gn4zGZqMe1-9">
          <mxGeometry width="50" height="50" relative="1" as="geometry">
            <mxPoint x="270" y="1990" as="sourcePoint" />
            <mxPoint x="340" y="1940" as="targetPoint" />
            <Array as="points">
              <mxPoint x="240" y="2100" />
              <mxPoint x="340" y="2100" />
              <mxPoint x="340" y="2000" />
              <mxPoint x="340" y="1980" />
              <mxPoint x="340" y="1960" />
            </Array>
          </mxGeometry>
        </mxCell>
        <mxCell id="Xi26tniJu_gn4zGZqMe1-27" value="udp_broadcaster" style="rounded=1;whiteSpace=wrap;html=1;" vertex="1" parent="1">
          <mxGeometry x="520" y="1240" width="120" height="40" as="geometry" />
        </mxCell>
        <mxCell id="Xi26tniJu_gn4zGZqMe1-28" value="Set up the socket." style="shape=hexagon;perimeter=hexagonPerimeter2;whiteSpace=wrap;html=1;fixedSize=1;" vertex="1" parent="1">
          <mxGeometry x="520" y="1320" width="120" height="40" as="geometry" />
        </mxCell>
        <mxCell id="Xi26tniJu_gn4zGZqMe1-29" value="" style="endArrow=classic;html=1;rounded=0;exitX=0.5;exitY=1;exitDx=0;exitDy=0;" edge="1" parent="1" target="Xi26tniJu_gn4zGZqMe1-28">
          <mxGeometry width="50" height="50" relative="1" as="geometry">
            <mxPoint x="580" y="1280" as="sourcePoint" />
            <mxPoint x="660" y="1390" as="targetPoint" />
          </mxGeometry>
        </mxCell>
        <mxCell id="Xi26tniJu_gn4zGZqMe1-30" value="" style="endArrow=classic;html=1;rounded=0;exitX=0.5;exitY=1;exitDx=0;exitDy=0;entryX=0.5;entryY=0;entryDx=0;entryDy=0;" edge="1" parent="1" source="Xi26tniJu_gn4zGZqMe1-28">
          <mxGeometry width="50" height="50" relative="1" as="geometry">
            <mxPoint x="610" y="1440" as="sourcePoint" />
            <mxPoint x="580" y="1400" as="targetPoint" />
          </mxGeometry>
        </mxCell>
        <mxCell id="Xi26tniJu_gn4zGZqMe1-31" value="Am I the master?" style="rhombus;whiteSpace=wrap;html=1;" vertex="1" parent="1">
          <mxGeometry x="540" y="1400" width="80" height="80" as="geometry" />
        </mxCell>
        <mxCell id="Xi26tniJu_gn4zGZqMe1-32" value="" style="endArrow=classic;html=1;rounded=0;exitX=1;exitY=0.5;exitDx=0;exitDy=0;" edge="1" parent="1" source="Xi26tniJu_gn4zGZqMe1-31">
          <mxGeometry width="50" height="50" relative="1" as="geometry">
            <mxPoint x="270" y="1480" as="sourcePoint" />
            <mxPoint x="580" y="1380" as="targetPoint" />
            <Array as="points">
              <mxPoint x="660" y="1440" />
              <mxPoint x="660" y="1380" />
            </Array>
          </mxGeometry>
        </mxCell>
        <mxCell id="Xi26tniJu_gn4zGZqMe1-33" value="No" style="edgeLabel;html=1;align=center;verticalAlign=middle;resizable=0;points=[];" vertex="1" connectable="0" parent="Xi26tniJu_gn4zGZqMe1-32">
          <mxGeometry x="-0.8611" y="3" relative="1" as="geometry">
            <mxPoint y="-7" as="offset" />
          </mxGeometry>
        </mxCell>
        <mxCell id="Xi26tniJu_gn4zGZqMe1-34" value="Send broadcast: key + WorldView." style="rounded=0;whiteSpace=wrap;html=1;" vertex="1" parent="1">
          <mxGeometry x="520" y="1520" width="120" height="60" as="geometry" />
        </mxCell>
        <mxCell id="Xi26tniJu_gn4zGZqMe1-35" value="" style="endArrow=classic;html=1;rounded=0;exitX=0.5;exitY=1;exitDx=0;exitDy=0;entryX=0.5;entryY=0;entryDx=0;entryDy=0;" edge="1" parent="1" source="Xi26tniJu_gn4zGZqMe1-31" target="Xi26tniJu_gn4zGZqMe1-34">
          <mxGeometry width="50" height="50" relative="1" as="geometry">
            <mxPoint x="270" y="1570" as="sourcePoint" />
            <mxPoint x="320" y="1520" as="targetPoint" />
          </mxGeometry>
        </mxCell>
        <mxCell id="Xi26tniJu_gn4zGZqMe1-36" value="Yes" style="edgeLabel;html=1;align=center;verticalAlign=middle;resizable=0;points=[];" vertex="1" connectable="0" parent="Xi26tniJu_gn4zGZqMe1-35">
          <mxGeometry x="-0.35" relative="1" as="geometry">
            <mxPoint x="10" y="-3" as="offset" />
          </mxGeometry>
        </mxCell>
        <mxCell id="Xi26tniJu_gn4zGZqMe1-37" value="" style="endArrow=classic;html=1;rounded=0;exitX=0.5;exitY=1;exitDx=0;exitDy=0;" edge="1" parent="1" source="Xi26tniJu_gn4zGZqMe1-34">
          <mxGeometry width="50" height="50" relative="1" as="geometry">
            <mxPoint x="270" y="1570" as="sourcePoint" />
            <mxPoint x="660" y="1440" as="targetPoint" />
            <Array as="points">
              <mxPoint x="580" y="1600" />
              <mxPoint x="660" y="1600" />
            </Array>
          </mxGeometry>
        </mxCell>
      </root>
    </mxGraphModel>
  </diagram>
  <diagram id="AvzknRrypeV_0MIiRRV3" name="TCP">
    <mxGraphModel dx="1114" dy="1027" grid="1" gridSize="10" guides="1" tooltips="1" connect="1" arrows="1" fold="1" page="1" pageScale="1" pageWidth="850" pageHeight="1100" math="0" shadow="0">
      <root>
        <mxCell id="0" />
        <mxCell id="1" parent="0" />
        <mxCell id="JymJ1t1jgbEzOUIMCmIy-1" value="listener_task" style="rounded=1;whiteSpace=wrap;html=1;fontSize=12;glass=0;strokeWidth=1;shadow=0;" vertex="1" parent="1">
          <mxGeometry x="40" y="80" width="120" height="40" as="geometry" />
        </mxCell>
        <mxCell id="JymJ1t1jgbEzOUIMCmIy-2" value="tilkoblet internett?" style="rhombus;whiteSpace=wrap;html=1;shadow=0;fontFamily=Helvetica;fontSize=12;align=center;strokeWidth=1;spacing=6;spacingTop=-4;" vertex="1" parent="1">
          <mxGeometry x="50" y="170" width="100" height="80" as="geometry" />
        </mxCell>
        <mxCell id="JymJ1t1jgbEzOUIMCmIy-3" value="&lt;span style=&quot;color: rgb(0, 0, 0); font-family: Helvetica; font-size: 12px; font-style: normal; font-variant-ligatures: normal; font-variant-caps: normal; font-weight: 400; letter-spacing: normal; orphans: 2; text-align: center; text-indent: 0px; text-transform: none; widows: 2; word-spacing: 0px; -webkit-text-stroke-width: 0px; white-space: normal; background-color: rgb(251, 251, 251); text-decoration-thickness: initial; text-decoration-style: initial; text-decoration-color: initial; float: none; display: inline !important;&quot;&gt;Sett opp en tcp listener&lt;/span&gt;" style="shape=hexagon;perimeter=hexagonPerimeter2;whiteSpace=wrap;html=1;fixedSize=1;" vertex="1" parent="1">
          <mxGeometry x="40" y="290" width="120" height="50" as="geometry" />
        </mxCell>
        <mxCell id="JymJ1t1jgbEzOUIMCmIy-4" style="edgeStyle=orthogonalEdgeStyle;rounded=0;orthogonalLoop=1;jettySize=auto;html=1;exitX=0.5;exitY=1;exitDx=0;exitDy=0;" edge="1" parent="1" source="JymJ1t1jgbEzOUIMCmIy-3" target="JymJ1t1jgbEzOUIMCmIy-3">
          <mxGeometry relative="1" as="geometry" />
        </mxCell>
        <mxCell id="JymJ1t1jgbEzOUIMCmIy-5" value="Accept" style="rounded=0;whiteSpace=wrap;html=1;" vertex="1" parent="1">
          <mxGeometry x="40" y="380" width="120" height="30" as="geometry" />
        </mxCell>
        <mxCell id="JymJ1t1jgbEzOUIMCmIy-6" value="" style="endArrow=classic;html=1;rounded=0;exitX=0.5;exitY=1;exitDx=0;exitDy=0;entryX=0.5;entryY=0;entryDx=0;entryDy=0;" edge="1" parent="1" source="JymJ1t1jgbEzOUIMCmIy-3" target="JymJ1t1jgbEzOUIMCmIy-5">
          <mxGeometry width="50" height="50" relative="1" as="geometry">
            <mxPoint x="250" y="340" as="sourcePoint" />
            <mxPoint x="300" y="290" as="targetPoint" />
          </mxGeometry>
        </mxCell>
        <mxCell id="JymJ1t1jgbEzOUIMCmIy-7" value="" style="endArrow=classic;html=1;rounded=0;exitX=0.5;exitY=1;exitDx=0;exitDy=0;entryX=0.5;entryY=0;entryDx=0;entryDy=0;" edge="1" parent="1" source="JymJ1t1jgbEzOUIMCmIy-2" target="JymJ1t1jgbEzOUIMCmIy-3">
          <mxGeometry width="50" height="50" relative="1" as="geometry">
            <mxPoint x="250" y="340" as="sourcePoint" />
            <mxPoint x="300" y="290" as="targetPoint" />
          </mxGeometry>
        </mxCell>
        <mxCell id="JymJ1t1jgbEzOUIMCmIy-8" value="Ja" style="edgeLabel;html=1;align=center;verticalAlign=middle;resizable=0;points=[];" vertex="1" connectable="0" parent="JymJ1t1jgbEzOUIMCmIy-7">
          <mxGeometry x="-0.3241" y="1" relative="1" as="geometry">
            <mxPoint x="9" y="-4" as="offset" />
          </mxGeometry>
        </mxCell>
        <mxCell id="JymJ1t1jgbEzOUIMCmIy-9" value="" style="endArrow=classic;html=1;rounded=0;exitX=0.5;exitY=1;exitDx=0;exitDy=0;exitPerimeter=0;entryX=0.5;entryY=0;entryDx=0;entryDy=0;" edge="1" parent="1" source="JymJ1t1jgbEzOUIMCmIy-1" target="JymJ1t1jgbEzOUIMCmIy-2">
          <mxGeometry width="50" height="50" relative="1" as="geometry">
            <mxPoint x="250" y="340" as="sourcePoint" />
            <mxPoint x="300" y="290" as="targetPoint" />
          </mxGeometry>
        </mxCell>
        <mxCell id="JymJ1t1jgbEzOUIMCmIy-10" value="" style="endArrow=classic;html=1;rounded=0;exitX=1;exitY=0.5;exitDx=0;exitDy=0;" edge="1" parent="1" source="JymJ1t1jgbEzOUIMCmIy-2">
          <mxGeometry width="50" height="50" relative="1" as="geometry">
            <mxPoint x="250" y="340" as="sourcePoint" />
            <mxPoint x="100" y="140" as="targetPoint" />
            <Array as="points">
              <mxPoint x="180" y="210" />
              <mxPoint x="180" y="140" />
            </Array>
          </mxGeometry>
        </mxCell>
        <mxCell id="JymJ1t1jgbEzOUIMCmIy-11" value="Nei" style="edgeLabel;html=1;align=center;verticalAlign=middle;resizable=0;points=[];" vertex="1" connectable="0" parent="JymJ1t1jgbEzOUIMCmIy-10">
          <mxGeometry x="-0.8154" y="-1" relative="1" as="geometry">
            <mxPoint x="-10" y="-11" as="offset" />
          </mxGeometry>
        </mxCell>
        <mxCell id="JymJ1t1jgbEzOUIMCmIy-12" value="Send socket til tcp_handler" style="shape=parallelogram;perimeter=parallelogramPerimeter;whiteSpace=wrap;html=1;fixedSize=1;" vertex="1" parent="1">
          <mxGeometry x="40" y="450" width="120" height="50" as="geometry" />
        </mxCell>
        <mxCell id="JymJ1t1jgbEzOUIMCmIy-13" value="" style="endArrow=classic;html=1;rounded=0;exitX=0.5;exitY=1;exitDx=0;exitDy=0;entryX=0.5;entryY=0;entryDx=0;entryDy=0;" edge="1" parent="1" source="JymJ1t1jgbEzOUIMCmIy-5" target="JymJ1t1jgbEzOUIMCmIy-12">
          <mxGeometry width="50" height="50" relative="1" as="geometry">
            <mxPoint x="250" y="480" as="sourcePoint" />
            <mxPoint x="100" y="440" as="targetPoint" />
          </mxGeometry>
        </mxCell>
        <mxCell id="JymJ1t1jgbEzOUIMCmIy-14" value="" style="endArrow=classic;html=1;rounded=0;exitX=0.5;exitY=1;exitDx=0;exitDy=0;" edge="1" parent="1" source="JymJ1t1jgbEzOUIMCmIy-12">
          <mxGeometry width="50" height="50" relative="1" as="geometry">
            <mxPoint x="250" y="480" as="sourcePoint" />
            <mxPoint x="100" y="360" as="targetPoint" />
            <Array as="points">
              <mxPoint x="100" y="520" />
              <mxPoint x="180" y="520" />
              <mxPoint x="180" y="360" />
            </Array>
          </mxGeometry>
        </mxCell>
        <mxCell id="JymJ1t1jgbEzOUIMCmIy-15" value="tcp_handler" style="rounded=1;whiteSpace=wrap;html=1;" vertex="1" parent="1">
          <mxGeometry x="274" y="80" width="120" height="40" as="geometry" />
        </mxCell>
        <mxCell id="JymJ1t1jgbEzOUIMCmIy-16" value="er master?" style="rhombus;whiteSpace=wrap;html=1;" vertex="1" parent="1">
          <mxGeometry x="294" y="170" width="80" height="80" as="geometry" />
        </mxCell>
        <mxCell id="JymJ1t1jgbEzOUIMCmIy-17" value="" style="endArrow=classic;html=1;rounded=0;exitX=0.5;exitY=1;exitDx=0;exitDy=0;entryX=0.5;entryY=0;entryDx=0;entryDy=0;" edge="1" parent="1" source="JymJ1t1jgbEzOUIMCmIy-15" target="JymJ1t1jgbEzOUIMCmIy-16">
          <mxGeometry width="50" height="50" relative="1" as="geometry">
            <mxPoint x="334" y="280" as="sourcePoint" />
            <mxPoint x="384" y="230" as="targetPoint" />
          </mxGeometry>
        </mxCell>
        <mxCell id="JymJ1t1jgbEzOUIMCmIy-18" value="" style="endArrow=classic;html=1;rounded=0;exitX=0.5;exitY=1;exitDx=0;exitDy=0;" edge="1" parent="1" source="JymJ1t1jgbEzOUIMCmIy-16">
          <mxGeometry width="50" height="50" relative="1" as="geometry">
            <mxPoint x="334" y="280" as="sourcePoint" />
            <mxPoint x="334" y="290" as="targetPoint" />
          </mxGeometry>
        </mxCell>
        <mxCell id="JymJ1t1jgbEzOUIMCmIy-19" value="Ja" style="edgeLabel;html=1;align=center;verticalAlign=middle;resizable=0;points=[];" vertex="1" connectable="0" parent="JymJ1t1jgbEzOUIMCmIy-18">
          <mxGeometry x="-0.3931" y="1" relative="1" as="geometry">
            <mxPoint x="9" y="-2" as="offset" />
          </mxGeometry>
        </mxCell>
        <mxCell id="JymJ1t1jgbEzOUIMCmIy-20" value="Motta socket fra listener_task" style="shape=parallelogram;perimeter=parallelogramPerimeter;whiteSpace=wrap;html=1;fixedSize=1;" vertex="1" parent="1">
          <mxGeometry x="274" y="290" width="120" height="50" as="geometry" />
        </mxCell>
        <mxCell id="JymJ1t1jgbEzOUIMCmIy-21" value="" style="endArrow=classic;html=1;rounded=0;exitX=0.5;exitY=1;exitDx=0;exitDy=0;" edge="1" parent="1" source="JymJ1t1jgbEzOUIMCmIy-20">
          <mxGeometry width="50" height="50" relative="1" as="geometry">
            <mxPoint x="334" y="350" as="sourcePoint" />
            <mxPoint x="334" y="380" as="targetPoint" />
          </mxGeometry>
        </mxCell>
        <mxCell id="JymJ1t1jgbEzOUIMCmIy-22" value="start WD + lesing pÃ¥ socketen" style="rounded=0;whiteSpace=wrap;html=1;" vertex="1" parent="1">
          <mxGeometry x="274" y="380" width="120" height="30" as="geometry" />
        </mxCell>
        <mxCell id="JymJ1t1jgbEzOUIMCmIy-23" value="" style="endArrow=classic;html=1;rounded=0;exitX=0.5;exitY=1;exitDx=0;exitDy=0;" edge="1" parent="1" source="JymJ1t1jgbEzOUIMCmIy-22">
          <mxGeometry width="50" height="50" relative="1" as="geometry">
            <mxPoint x="334" y="350" as="sourcePoint" />
            <mxPoint x="334" y="140" as="targetPoint" />
            <Array as="points">
              <mxPoint x="334" y="430" />
              <mxPoint x="414" y="430" />
              <mxPoint x="414" y="140" />
            </Array>
          </mxGeometry>
        </mxCell>
        <mxCell id="JymJ1t1jgbEzOUIMCmIy-24" value="" style="endArrow=classic;html=1;rounded=0;exitX=0;exitY=0.5;exitDx=0;exitDy=0;" edge="1" parent="1" source="JymJ1t1jgbEzOUIMCmIy-16">
          <mxGeometry width="50" height="50" relative="1" as="geometry">
            <mxPoint x="334" y="350" as="sourcePoint" />
            <mxPoint x="334" y="460" as="targetPoint" />
            <Array as="points">
              <mxPoint x="254" y="210" />
              <mxPoint x="254" y="450" />
              <mxPoint x="334" y="450" />
            </Array>
          </mxGeometry>
        </mxCell>
        <mxCell id="JymJ1t1jgbEzOUIMCmIy-25" value="Nei" style="edgeLabel;html=1;align=center;verticalAlign=middle;resizable=0;points=[];" vertex="1" connectable="0" parent="JymJ1t1jgbEzOUIMCmIy-24">
          <mxGeometry x="-0.9117" relative="1" as="geometry">
            <mxPoint y="10" as="offset" />
          </mxGeometry>
        </mxCell>
        <mxCell id="JymJ1t1jgbEzOUIMCmIy-26" value="Koble til master" style="rounded=0;whiteSpace=wrap;html=1;" vertex="1" parent="1">
          <mxGeometry x="274" y="460" width="120" height="30" as="geometry" />
        </mxCell>
        <mxCell id="JymJ1t1jgbEzOUIMCmIy-27" value="Er slave &amp;amp;&amp;amp; har master tilkobling?" style="rhombus;whiteSpace=wrap;html=1;" vertex="1" parent="1">
          <mxGeometry x="274" y="520" width="120" height="110" as="geometry" />
        </mxCell>
        <mxCell id="JymJ1t1jgbEzOUIMCmIy-28" value="" style="endArrow=classic;html=1;rounded=0;entryX=0.5;entryY=0;entryDx=0;entryDy=0;" edge="1" parent="1" target="JymJ1t1jgbEzOUIMCmIy-27">
          <mxGeometry width="50" height="50" relative="1" as="geometry">
            <mxPoint x="334" y="490" as="sourcePoint" />
            <mxPoint x="384" y="440" as="targetPoint" />
          </mxGeometry>
        </mxCell>
        <mxCell id="JymJ1t1jgbEzOUIMCmIy-29" value="" style="endArrow=classic;html=1;rounded=0;" edge="1" parent="1">
          <mxGeometry width="50" height="50" relative="1" as="geometry">
            <mxPoint x="394" y="575" as="sourcePoint" />
            <mxPoint x="414" y="430" as="targetPoint" />
            <Array as="points">
              <mxPoint x="414" y="575" />
            </Array>
          </mxGeometry>
        </mxCell>
        <mxCell id="JymJ1t1jgbEzOUIMCmIy-30" value="Nei" style="edgeLabel;html=1;align=center;verticalAlign=middle;resizable=0;points=[];" vertex="1" connectable="0" parent="JymJ1t1jgbEzOUIMCmIy-29">
          <mxGeometry x="-0.5181" y="-3" relative="1" as="geometry">
            <mxPoint x="-13" y="5" as="offset" />
          </mxGeometry>
        </mxCell>
        <mxCell id="JymJ1t1jgbEzOUIMCmIy-31" value="" style="endArrow=classic;html=1;rounded=0;" edge="1" parent="1">
          <mxGeometry width="50" height="50" relative="1" as="geometry">
            <mxPoint x="334" y="630" as="sourcePoint" />
            <mxPoint x="334" y="660" as="targetPoint" />
          </mxGeometry>
        </mxCell>
        <mxCell id="JymJ1t1jgbEzOUIMCmIy-32" value="Ja" style="edgeLabel;html=1;align=center;verticalAlign=middle;resizable=0;points=[];" vertex="1" connectable="0" parent="JymJ1t1jgbEzOUIMCmIy-31">
          <mxGeometry x="-0.4207" y="1" relative="1" as="geometry">
            <mxPoint x="9" as="offset" />
          </mxGeometry>
        </mxCell>
        <mxCell id="JymJ1t1jgbEzOUIMCmIy-33" value="Ny master pÃ¥ nettverk?" style="rhombus;whiteSpace=wrap;html=1;" vertex="1" parent="1">
          <mxGeometry x="274" y="660" width="120" height="110" as="geometry" />
        </mxCell>
        <mxCell id="JymJ1t1jgbEzOUIMCmIy-34" value="" style="endArrow=classic;html=1;rounded=0;exitX=1;exitY=0.5;exitDx=0;exitDy=0;" edge="1" parent="1" source="JymJ1t1jgbEzOUIMCmIy-33">
          <mxGeometry width="50" height="50" relative="1" as="geometry">
            <mxPoint x="334" y="560" as="sourcePoint" />
            <mxPoint x="414" y="570" as="targetPoint" />
            <Array as="points">
              <mxPoint x="414" y="715" />
            </Array>
          </mxGeometry>
        </mxCell>
        <mxCell id="JymJ1t1jgbEzOUIMCmIy-35" value="Ja" style="edgeLabel;html=1;align=center;verticalAlign=middle;resizable=0;points=[];" vertex="1" connectable="0" parent="JymJ1t1jgbEzOUIMCmIy-34">
          <mxGeometry x="-0.9252" relative="1" as="geometry">
            <mxPoint x="4" y="-15" as="offset" />
          </mxGeometry>
        </mxCell>
        <mxCell id="JymJ1t1jgbEzOUIMCmIy-36" value="" style="endArrow=classic;html=1;rounded=0;" edge="1" parent="1">
          <mxGeometry width="50" height="50" relative="1" as="geometry">
            <mxPoint x="334" y="770" as="sourcePoint" />
            <mxPoint x="334" y="800" as="targetPoint" />
          </mxGeometry>
        </mxCell>
        <mxCell id="JymJ1t1jgbEzOUIMCmIy-37" value="Nei" style="edgeLabel;html=1;align=center;verticalAlign=middle;resizable=0;points=[];" vertex="1" connectable="0" parent="JymJ1t1jgbEzOUIMCmIy-36">
          <mxGeometry x="-0.0529" y="1" relative="1" as="geometry">
            <mxPoint x="9" y="-4" as="offset" />
          </mxGeometry>
        </mxCell>
        <mxCell id="JymJ1t1jgbEzOUIMCmIy-38" value="Send TCP melding til master" style="rounded=0;whiteSpace=wrap;html=1;" vertex="1" parent="1">
          <mxGeometry x="274" y="800" width="120" height="30" as="geometry" />
        </mxCell>
        <mxCell id="JymJ1t1jgbEzOUIMCmIy-39" value="" style="endArrow=classic;html=1;rounded=0;exitX=0.5;exitY=1;exitDx=0;exitDy=0;" edge="1" parent="1" source="JymJ1t1jgbEzOUIMCmIy-38">
          <mxGeometry width="50" height="50" relative="1" as="geometry">
            <mxPoint x="334" y="760" as="sourcePoint" />
            <mxPoint x="334" y="500" as="targetPoint" />
            <Array as="points">
              <mxPoint x="334" y="850" />
              <mxPoint x="254" y="850" />
              <mxPoint x="254" y="500" />
            </Array>
          </mxGeometry>
        </mxCell>
        <mxCell id="JymJ1t1jgbEzOUIMCmIy-40" value="WD + lesing" style="rounded=1;whiteSpace=wrap;html=1;" vertex="1" parent="1">
          <mxGeometry x="600" y="80" width="120" height="40" as="geometry" />
        </mxCell>
        <mxCell id="JymJ1t1jgbEzOUIMCmIy-41" value="Start timout-klokke" style="rounded=0;whiteSpace=wrap;html=1;" vertex="1" parent="1">
          <mxGeometry x="600" y="160" width="120" height="40" as="geometry" />
        </mxCell>
        <mxCell id="JymJ1t1jgbEzOUIMCmIy-42" value="" style="endArrow=classic;html=1;rounded=0;exitX=0.5;exitY=1;exitDx=0;exitDy=0;entryX=0.5;entryY=0;entryDx=0;entryDy=0;" edge="1" parent="1" source="JymJ1t1jgbEzOUIMCmIy-40" target="JymJ1t1jgbEzOUIMCmIy-41">
          <mxGeometry width="50" height="50" relative="1" as="geometry">
            <mxPoint x="380" y="200" as="sourcePoint" />
            <mxPoint x="430" y="150" as="targetPoint" />
          </mxGeometry>
        </mxCell>
        <mxCell id="JymJ1t1jgbEzOUIMCmIy-43" value="" style="endArrow=none;html=1;rounded=0;entryX=0.5;entryY=1;entryDx=0;entryDy=0;" edge="1" parent="1" target="JymJ1t1jgbEzOUIMCmIy-41">
          <mxGeometry width="50" height="50" relative="1" as="geometry">
            <mxPoint x="660" y="240" as="sourcePoint" />
            <mxPoint x="430" y="150" as="targetPoint" />
          </mxGeometry>
        </mxCell>
        <mxCell id="JymJ1t1jgbEzOUIMCmIy-44" value="" style="endArrow=classic;html=1;rounded=0;" edge="1" parent="1">
          <mxGeometry width="50" height="50" relative="1" as="geometry">
            <mxPoint x="660" y="240" as="sourcePoint" />
            <mxPoint x="760" y="280" as="targetPoint" />
            <Array as="points">
              <mxPoint x="760" y="240" />
            </Array>
          </mxGeometry>
        </mxCell>
        <mxCell id="JymJ1t1jgbEzOUIMCmIy-45" value="Timeout" style="edgeLabel;html=1;align=center;verticalAlign=middle;resizable=0;points=[];" vertex="1" connectable="0" parent="JymJ1t1jgbEzOUIMCmIy-44">
          <mxGeometry x="0.6759" y="2" relative="1" as="geometry">
            <mxPoint x="18" as="offset" />
          </mxGeometry>
        </mxCell>
        <mxCell id="JymJ1t1jgbEzOUIMCmIy-46" value="" style="endArrow=classic;html=1;rounded=0;" edge="1" parent="1">
          <mxGeometry width="50" height="50" relative="1" as="geometry">
            <mxPoint x="660" y="240" as="sourcePoint" />
            <mxPoint x="560" y="280" as="targetPoint" />
            <Array as="points">
              <mxPoint x="560" y="240" />
            </Array>
          </mxGeometry>
        </mxCell>
        <mxCell id="JymJ1t1jgbEzOUIMCmIy-47" value="Mottat melding" style="edgeLabel;html=1;align=center;verticalAlign=middle;resizable=0;points=[];" vertex="1" connectable="0" parent="JymJ1t1jgbEzOUIMCmIy-46">
          <mxGeometry x="0.5773" relative="1" as="geometry">
            <mxPoint x="40" y="10" as="offset" />
          </mxGeometry>
        </mxCell>
        <mxCell id="JymJ1t1jgbEzOUIMCmIy-48" value="Les header&lt;div&gt;(lengde pÃ¥ msg)&lt;/div&gt;" style="rounded=0;whiteSpace=wrap;html=1;" vertex="1" parent="1">
          <mxGeometry x="500" y="280" width="120" height="40" as="geometry" />
        </mxCell>
        <mxCell id="JymJ1t1jgbEzOUIMCmIy-49" value="Les meldingen" style="rounded=0;whiteSpace=wrap;html=1;" vertex="1" parent="1">
          <mxGeometry x="500" y="360" width="120" height="40" as="geometry" />
        </mxCell>
        <mxCell id="JymJ1t1jgbEzOUIMCmIy-50" value="Send meldingen&lt;div&gt;til update_wv&lt;/div&gt;" style="shape=parallelogram;perimeter=parallelogramPerimeter;whiteSpace=wrap;html=1;fixedSize=1;" vertex="1" parent="1">
          <mxGeometry x="500" y="440" width="120" height="40" as="geometry" />
        </mxCell>
        <mxCell id="JymJ1t1jgbEzOUIMCmIy-51" value="" style="endArrow=classic;html=1;rounded=0;exitX=0.5;exitY=1;exitDx=0;exitDy=0;entryX=0.5;entryY=0;entryDx=0;entryDy=0;" edge="1" parent="1" source="JymJ1t1jgbEzOUIMCmIy-48" target="JymJ1t1jgbEzOUIMCmIy-49">
          <mxGeometry width="50" height="50" relative="1" as="geometry">
            <mxPoint x="380" y="340" as="sourcePoint" />
            <mxPoint x="430" y="290" as="targetPoint" />
          </mxGeometry>
        </mxCell>
        <mxCell id="JymJ1t1jgbEzOUIMCmIy-52" value="" style="endArrow=classic;html=1;rounded=0;exitX=0.5;exitY=1;exitDx=0;exitDy=0;entryX=0.5;entryY=0;entryDx=0;entryDy=0;" edge="1" parent="1" source="JymJ1t1jgbEzOUIMCmIy-49" target="JymJ1t1jgbEzOUIMCmIy-50">
          <mxGeometry width="50" height="50" relative="1" as="geometry">
            <mxPoint x="380" y="480" as="sourcePoint" />
            <mxPoint x="430" y="430" as="targetPoint" />
          </mxGeometry>
        </mxCell>
        <mxCell id="JymJ1t1jgbEzOUIMCmIy-53" value="" style="endArrow=classic;html=1;rounded=0;exitX=0.5;exitY=1;exitDx=0;exitDy=0;" edge="1" parent="1" source="JymJ1t1jgbEzOUIMCmIy-50">
          <mxGeometry width="50" height="50" relative="1" as="geometry">
            <mxPoint x="380" y="340" as="sourcePoint" />
            <mxPoint x="660" y="140" as="targetPoint" />
            <Array as="points">
              <mxPoint x="560" y="500" />
              <mxPoint x="480" y="500" />
              <mxPoint x="480" y="140" />
            </Array>
          </mxGeometry>
        </mxCell>
        <mxCell id="JymJ1t1jgbEzOUIMCmIy-54" value="&lt;font style=&quot;font-size: 17px;&quot;&gt;&lt;b&gt;TCP:&lt;/b&gt;&lt;/font&gt;" style="text;html=1;align=center;verticalAlign=middle;resizable=0;points=[];autosize=1;strokeColor=none;fillColor=none;" vertex="1" parent="1">
          <mxGeometry x="30" y="30" width="60" height="30" as="geometry" />
        </mxCell>
      </root>
    </mxGraphModel>
  </diagram>
  <diagram id="gGc6zhNlp2dVsNGAN4Ch" name="update_wv">
    <mxGraphModel dx="1385" dy="826" grid="1" gridSize="10" guides="1" tooltips="1" connect="1" arrows="1" fold="1" page="1" pageScale="1" pageWidth="850" pageHeight="1100" math="0" shadow="0">
      <root>
        <mxCell id="0" />
        <mxCell id="1" parent="0" />
        <mxCell id="m41DjZXXODaxuGsRqDAt-1" value="&lt;font style=&quot;font-size: 15px;&quot;&gt;update_wv matcher&amp;nbsp; mottak pÃ¥ diverse kanaler:&lt;/font&gt;" style="text;html=1;align=center;verticalAlign=middle;resizable=0;points=[];autosize=1;strokeColor=none;fillColor=none;" vertex="1" parent="1">
          <mxGeometry x="10" y="48" width="340" height="30" as="geometry" />
        </mxCell>
        <mxCell id="m41DjZXXODaxuGsRqDAt-2" value="update_wv" style="rounded=1;whiteSpace=wrap;html=1;" vertex="1" parent="1">
          <mxGeometry x="50" y="120" width="120" height="40" as="geometry" />
        </mxCell>
        <mxCell id="m41DjZXXODaxuGsRqDAt-3" value="" style="endArrow=classic;html=1;rounded=0;exitX=0.5;exitY=1;exitDx=0;exitDy=0;" edge="1" parent="1" source="m41DjZXXODaxuGsRqDAt-2">
          <mxGeometry width="50" height="50" relative="1" as="geometry">
            <mxPoint x="10" y="390" as="sourcePoint" />
            <mxPoint x="110" y="200" as="targetPoint" />
          </mxGeometry>
        </mxCell>
        <mxCell id="m41DjZXXODaxuGsRqDAt-4" value="rx&lt;div&gt;&lt;p data-pm-slice=&quot;1 1 []&quot;&gt;&lt;font style=&quot;font-size: 9px;&quot;&gt;master acked msg?&lt;/font&gt;&lt;/p&gt;&lt;/div&gt;" style="rhombus;whiteSpace=wrap;html=1;" vertex="1" parent="1">
          <mxGeometry x="70" y="200" width="80" height="80" as="geometry" />
        </mxCell>
        <mxCell id="m41DjZXXODaxuGsRqDAt-5" value="" style="endArrow=classic;html=1;rounded=0;exitX=1;exitY=0.5;exitDx=0;exitDy=0;" edge="1" parent="1" source="m41DjZXXODaxuGsRqDAt-4">
          <mxGeometry width="50" height="50" relative="1" as="geometry">
            <mxPoint x="210" y="320" as="sourcePoint" />
            <mxPoint x="190" y="240" as="targetPoint" />
          </mxGeometry>
        </mxCell>
        <mxCell id="m41DjZXXODaxuGsRqDAt-6" value="Yes" style="edgeLabel;html=1;align=center;verticalAlign=middle;resizable=0;points=[];" vertex="1" connectable="0" parent="m41DjZXXODaxuGsRqDAt-5">
          <mxGeometry x="0.0672" y="-2" relative="1" as="geometry">
            <mxPoint x="-11" y="-12" as="offset" />
          </mxGeometry>
        </mxCell>
        <mxCell id="m41DjZXXODaxuGsRqDAt-7" value="" style="endArrow=classic;html=1;rounded=0;exitX=0.5;exitY=1;exitDx=0;exitDy=0;" edge="1" parent="1" source="m41DjZXXODaxuGsRqDAt-4">
          <mxGeometry width="50" height="50" relative="1" as="geometry">
            <mxPoint x="210" y="320" as="sourcePoint" />
            <mxPoint x="110" y="320" as="targetPoint" />
          </mxGeometry>
        </mxCell>
        <mxCell id="m41DjZXXODaxuGsRqDAt-8" value="No" style="edgeLabel;html=1;align=center;verticalAlign=middle;resizable=0;points=[];" vertex="1" connectable="0" parent="m41DjZXXODaxuGsRqDAt-7">
          <mxGeometry x="0.1069" y="-1" relative="1" as="geometry">
            <mxPoint x="-9" y="-12" as="offset" />
          </mxGeometry>
        </mxCell>
        <mxCell id="m41DjZXXODaxuGsRqDAt-9" value="rx&lt;div&gt;&lt;font style=&quot;font-size: 8px;&quot;&gt;WV from UDP?&lt;/font&gt;&lt;/div&gt;&lt;div&gt;&lt;br&gt;&lt;/div&gt;" style="rhombus;whiteSpace=wrap;html=1;" vertex="1" parent="1">
          <mxGeometry x="70" y="320" width="80" height="80" as="geometry" />
        </mxCell>
        <mxCell id="m41DjZXXODaxuGsRqDAt-10" value="" style="endArrow=classic;html=1;rounded=0;exitX=1;exitY=0.5;exitDx=0;exitDy=0;" edge="1" parent="1" source="m41DjZXXODaxuGsRqDAt-9">
          <mxGeometry width="50" height="50" relative="1" as="geometry">
            <mxPoint x="210" y="440" as="sourcePoint" />
            <mxPoint x="190" y="360" as="targetPoint" />
          </mxGeometry>
        </mxCell>
        <mxCell id="m41DjZXXODaxuGsRqDAt-11" value="Yes" style="edgeLabel;html=1;align=center;verticalAlign=middle;resizable=0;points=[];" vertex="1" connectable="0" parent="m41DjZXXODaxuGsRqDAt-10">
          <mxGeometry x="0.0672" y="-2" relative="1" as="geometry">
            <mxPoint x="-11" y="-12" as="offset" />
          </mxGeometry>
        </mxCell>
        <mxCell id="m41DjZXXODaxuGsRqDAt-12" value="" style="endArrow=classic;html=1;rounded=0;exitX=0.5;exitY=1;exitDx=0;exitDy=0;" edge="1" parent="1" source="m41DjZXXODaxuGsRqDAt-9">
          <mxGeometry width="50" height="50" relative="1" as="geometry">
            <mxPoint x="210" y="440" as="sourcePoint" />
            <mxPoint x="110" y="440" as="targetPoint" />
          </mxGeometry>
        </mxCell>
        <mxCell id="m41DjZXXODaxuGsRqDAt-13" value="No" style="edgeLabel;html=1;align=center;verticalAlign=middle;resizable=0;points=[];" vertex="1" connectable="0" parent="m41DjZXXODaxuGsRqDAt-12">
          <mxGeometry x="0.1069" y="-1" relative="1" as="geometry">
            <mxPoint x="-9" y="-12" as="offset" />
          </mxGeometry>
        </mxCell>
        <mxCell id="m41DjZXXODaxuGsRqDAt-14" value="rx&lt;div&gt;&lt;font style=&quot;font-size: 8px;&quot;&gt;&lt;font style=&quot;&quot;&gt;connection &lt;/font&gt;to&amp;nbsp;&lt;/font&gt;&lt;span style=&quot;font-size: 8px; background-color: transparent; color: light-dark(rgb(0, 0, 0), rgb(255, 255, 255));&quot;&gt;master failed&lt;/span&gt;&lt;/div&gt;" style="rhombus;whiteSpace=wrap;html=1;" vertex="1" parent="1">
          <mxGeometry x="70" y="440" width="80" height="80" as="geometry" />
        </mxCell>
        <mxCell id="m41DjZXXODaxuGsRqDAt-15" value="" style="endArrow=classic;html=1;rounded=0;exitX=1;exitY=0.5;exitDx=0;exitDy=0;" edge="1" parent="1" source="m41DjZXXODaxuGsRqDAt-14">
          <mxGeometry width="50" height="50" relative="1" as="geometry">
            <mxPoint x="210" y="560" as="sourcePoint" />
            <mxPoint x="190" y="480" as="targetPoint" />
          </mxGeometry>
        </mxCell>
        <mxCell id="m41DjZXXODaxuGsRqDAt-16" value="Yes" style="edgeLabel;html=1;align=center;verticalAlign=middle;resizable=0;points=[];" vertex="1" connectable="0" parent="m41DjZXXODaxuGsRqDAt-15">
          <mxGeometry x="0.0672" y="-2" relative="1" as="geometry">
            <mxPoint x="-11" y="-12" as="offset" />
          </mxGeometry>
        </mxCell>
        <mxCell id="m41DjZXXODaxuGsRqDAt-17" value="" style="endArrow=classic;html=1;rounded=0;exitX=0.5;exitY=1;exitDx=0;exitDy=0;" edge="1" parent="1" source="m41DjZXXODaxuGsRqDAt-14">
          <mxGeometry width="50" height="50" relative="1" as="geometry">
            <mxPoint x="210" y="560" as="sourcePoint" />
            <mxPoint x="110" y="560" as="targetPoint" />
          </mxGeometry>
        </mxCell>
        <mxCell id="m41DjZXXODaxuGsRqDAt-18" value="No" style="edgeLabel;html=1;align=center;verticalAlign=middle;resizable=0;points=[];" vertex="1" connectable="0" parent="m41DjZXXODaxuGsRqDAt-17">
          <mxGeometry x="0.1069" y="-1" relative="1" as="geometry">
            <mxPoint x="-9" y="-12" as="offset" />
          </mxGeometry>
        </mxCell>
        <mxCell id="m41DjZXXODaxuGsRqDAt-19" value="rx&lt;div&gt;&lt;font style=&quot;font-size: 8px;&quot;&gt;msg from slave&lt;/font&gt;&lt;/div&gt;&lt;div&gt;&lt;br&gt;&lt;/div&gt;" style="rhombus;whiteSpace=wrap;html=1;" vertex="1" parent="1">
          <mxGeometry x="70" y="560" width="80" height="80" as="geometry" />
        </mxCell>
        <mxCell id="m41DjZXXODaxuGsRqDAt-20" value="" style="endArrow=classic;html=1;rounded=0;exitX=1;exitY=0.5;exitDx=0;exitDy=0;" edge="1" parent="1" source="m41DjZXXODaxuGsRqDAt-19">
          <mxGeometry width="50" height="50" relative="1" as="geometry">
            <mxPoint x="210" y="680" as="sourcePoint" />
            <mxPoint x="190" y="600" as="targetPoint" />
          </mxGeometry>
        </mxCell>
        <mxCell id="m41DjZXXODaxuGsRqDAt-21" value="Yes" style="edgeLabel;html=1;align=center;verticalAlign=middle;resizable=0;points=[];" vertex="1" connectable="0" parent="m41DjZXXODaxuGsRqDAt-20">
          <mxGeometry x="0.0672" y="-2" relative="1" as="geometry">
            <mxPoint x="-11" y="-12" as="offset" />
          </mxGeometry>
        </mxCell>
        <mxCell id="m41DjZXXODaxuGsRqDAt-22" value="" style="endArrow=classic;html=1;rounded=0;exitX=0.5;exitY=1;exitDx=0;exitDy=0;" edge="1" parent="1" source="m41DjZXXODaxuGsRqDAt-19">
          <mxGeometry width="50" height="50" relative="1" as="geometry">
            <mxPoint x="210" y="680" as="sourcePoint" />
            <mxPoint x="110" y="680" as="targetPoint" />
          </mxGeometry>
        </mxCell>
        <mxCell id="m41DjZXXODaxuGsRqDAt-23" value="No" style="edgeLabel;html=1;align=center;verticalAlign=middle;resizable=0;points=[];" vertex="1" connectable="0" parent="m41DjZXXODaxuGsRqDAt-22">
          <mxGeometry x="0.1069" y="-1" relative="1" as="geometry">
            <mxPoint x="-9" y="-12" as="offset" />
          </mxGeometry>
        </mxCell>
        <mxCell id="m41DjZXXODaxuGsRqDAt-24" value="rx&lt;div&gt;&lt;font style=&quot;font-size: 8px;&quot;&gt;Reemove slave&lt;/font&gt;&lt;/div&gt;&lt;div&gt;&lt;br&gt;&lt;/div&gt;" style="rhombus;whiteSpace=wrap;html=1;" vertex="1" parent="1">
          <mxGeometry x="70" y="680" width="80" height="80" as="geometry" />
        </mxCell>
        <mxCell id="m41DjZXXODaxuGsRqDAt-25" value="" style="endArrow=classic;html=1;rounded=0;exitX=1;exitY=0.5;exitDx=0;exitDy=0;" edge="1" parent="1" source="m41DjZXXODaxuGsRqDAt-24">
          <mxGeometry width="50" height="50" relative="1" as="geometry">
            <mxPoint x="210" y="800" as="sourcePoint" />
            <mxPoint x="190" y="720" as="targetPoint" />
          </mxGeometry>
        </mxCell>
        <mxCell id="m41DjZXXODaxuGsRqDAt-26" value="Yes" style="edgeLabel;html=1;align=center;verticalAlign=middle;resizable=0;points=[];" vertex="1" connectable="0" parent="m41DjZXXODaxuGsRqDAt-25">
          <mxGeometry x="0.0672" y="-2" relative="1" as="geometry">
            <mxPoint x="-11" y="-12" as="offset" />
          </mxGeometry>
        </mxCell>
        <mxCell id="m41DjZXXODaxuGsRqDAt-27" value="" style="endArrow=classic;html=1;rounded=0;exitX=0.5;exitY=1;exitDx=0;exitDy=0;" edge="1" parent="1" source="m41DjZXXODaxuGsRqDAt-24">
          <mxGeometry width="50" height="50" relative="1" as="geometry">
            <mxPoint x="210" y="800" as="sourcePoint" />
            <mxPoint x="110" y="800" as="targetPoint" />
          </mxGeometry>
        </mxCell>
        <mxCell id="m41DjZXXODaxuGsRqDAt-28" value="No" style="edgeLabel;html=1;align=center;verticalAlign=middle;resizable=0;points=[];" vertex="1" connectable="0" parent="m41DjZXXODaxuGsRqDAt-27">
          <mxGeometry x="0.1069" y="-1" relative="1" as="geometry">
            <mxPoint x="-9" y="-12" as="offset" />
          </mxGeometry>
        </mxCell>
        <mxCell id="m41DjZXXODaxuGsRqDAt-29" value="&lt;br&gt;&lt;div&gt;&lt;font&gt;wv_edited?&lt;/font&gt;&lt;/div&gt;&lt;div&gt;&lt;br&gt;&lt;/div&gt;" style="rhombus;whiteSpace=wrap;html=1;" vertex="1" parent="1">
          <mxGeometry x="70" y="800" width="80" height="80" as="geometry" />
        </mxCell>
        <mxCell id="m41DjZXXODaxuGsRqDAt-30" value="" style="endArrow=classic;html=1;rounded=0;exitX=1;exitY=0.5;exitDx=0;exitDy=0;" edge="1" parent="1" source="m41DjZXXODaxuGsRqDAt-29">
          <mxGeometry width="50" height="50" relative="1" as="geometry">
            <mxPoint x="210" y="920" as="sourcePoint" />
            <mxPoint x="190" y="840" as="targetPoint" />
          </mxGeometry>
        </mxCell>
        <mxCell id="m41DjZXXODaxuGsRqDAt-31" value="Yes" style="edgeLabel;html=1;align=center;verticalAlign=middle;resizable=0;points=[];" vertex="1" connectable="0" parent="m41DjZXXODaxuGsRqDAt-30">
          <mxGeometry x="0.0672" y="-2" relative="1" as="geometry">
            <mxPoint x="-11" y="-12" as="offset" />
          </mxGeometry>
        </mxCell>
        <mxCell id="m41DjZXXODaxuGsRqDAt-32" value="" style="endArrow=classic;html=1;rounded=0;exitX=0.5;exitY=1;exitDx=0;exitDy=0;" edge="1" parent="1" source="m41DjZXXODaxuGsRqDAt-29">
          <mxGeometry width="50" height="50" relative="1" as="geometry">
            <mxPoint x="210" y="920" as="sourcePoint" />
            <mxPoint x="110" y="180" as="targetPoint" />
            <Array as="points">
              <mxPoint x="110" y="920" />
              <mxPoint x="50" y="920" />
              <mxPoint x="50" y="180" />
            </Array>
          </mxGeometry>
        </mxCell>
        <mxCell id="m41DjZXXODaxuGsRqDAt-33" value="Remove all buttons that have been sent to the master." style="rounded=0;whiteSpace=wrap;html=1;" vertex="1" parent="1">
          <mxGeometry x="190" y="210" width="120" height="60" as="geometry" />
        </mxCell>
        <mxCell id="m41DjZXXODaxuGsRqDAt-34" value="" style="endArrow=classic;html=1;rounded=0;exitX=1;exitY=0.5;exitDx=0;exitDy=0;" edge="1" parent="1" source="m41DjZXXODaxuGsRqDAt-33" target="m41DjZXXODaxuGsRqDAt-35">
          <mxGeometry width="50" height="50" relative="1" as="geometry">
            <mxPoint x="210" y="330" as="sourcePoint" />
            <mxPoint x="350" y="240" as="targetPoint" />
          </mxGeometry>
        </mxCell>
        <mxCell id="m41DjZXXODaxuGsRqDAt-35" value="wv_edited = True" style="rounded=0;whiteSpace=wrap;html=1;" vertex="1" parent="1">
          <mxGeometry x="350" y="220" width="120" height="40" as="geometry" />
        </mxCell>
        <mxCell id="m41DjZXXODaxuGsRqDAt-36" value="" style="endArrow=classic;html=1;rounded=0;exitX=1;exitY=0.5;exitDx=0;exitDy=0;" edge="1" parent="1" source="m41DjZXXODaxuGsRqDAt-35">
          <mxGeometry width="50" height="50" relative="1" as="geometry">
            <mxPoint x="210" y="330" as="sourcePoint" />
            <mxPoint x="110" y="300" as="targetPoint" />
            <Array as="points">
              <mxPoint x="490" y="240" />
              <mxPoint x="490" y="300" />
            </Array>
          </mxGeometry>
        </mxCell>
        <mxCell id="m41DjZXXODaxuGsRqDAt-37" value="Yes" style="edgeLabel;html=1;align=center;verticalAlign=middle;resizable=0;points=[];" vertex="1" connectable="0" parent="1">
          <mxGeometry x="160.37931034482767" y="349.9999999999999" as="geometry" />
        </mxCell>
        <mxCell id="m41DjZXXODaxuGsRqDAt-38" value="No" style="edgeLabel;html=1;align=center;verticalAlign=middle;resizable=0;points=[];" vertex="1" connectable="0" parent="1">
          <mxGeometry x="100" y="410.0689655172414" as="geometry" />
        </mxCell>
        <mxCell id="m41DjZXXODaxuGsRqDAt-39" value="Copy the WorldView and update the local elevator&#39;s status to reflect its own current state." style="rounded=0;whiteSpace=wrap;html=1;" vertex="1" parent="1">
          <mxGeometry x="190" y="320" width="120" height="80" as="geometry" />
        </mxCell>
        <mxCell id="m41DjZXXODaxuGsRqDAt-40" value="" style="endArrow=classic;html=1;rounded=0;exitX=1;exitY=0.5;exitDx=0;exitDy=0;" edge="1" parent="1" source="m41DjZXXODaxuGsRqDAt-39" target="m41DjZXXODaxuGsRqDAt-41">
          <mxGeometry width="50" height="50" relative="1" as="geometry">
            <mxPoint x="210" y="450" as="sourcePoint" />
            <mxPoint x="350" y="360" as="targetPoint" />
          </mxGeometry>
        </mxCell>
        <mxCell id="m41DjZXXODaxuGsRqDAt-41" value="wv_edited = true" style="rounded=0;whiteSpace=wrap;html=1;" vertex="1" parent="1">
          <mxGeometry x="350" y="340" width="120" height="40" as="geometry" />
        </mxCell>
        <mxCell id="m41DjZXXODaxuGsRqDAt-42" value="" style="endArrow=classic;html=1;rounded=0;exitX=1;exitY=0.5;exitDx=0;exitDy=0;" edge="1" parent="1" source="m41DjZXXODaxuGsRqDAt-41">
          <mxGeometry width="50" height="50" relative="1" as="geometry">
            <mxPoint x="210" y="450" as="sourcePoint" />
            <mxPoint x="110" y="420" as="targetPoint" />
            <Array as="points">
              <mxPoint x="490" y="360" />
              <mxPoint x="490" y="420" />
            </Array>
          </mxGeometry>
        </mxCell>
        <mxCell id="m41DjZXXODaxuGsRqDAt-43" value="Yes" style="edgeLabel;html=1;align=center;verticalAlign=middle;resizable=0;points=[];" vertex="1" connectable="0" parent="1">
          <mxGeometry x="160.37931034482767" y="469.9999999999999" as="geometry" />
        </mxCell>
        <mxCell id="m41DjZXXODaxuGsRqDAt-44" value="No" style="edgeLabel;html=1;align=center;verticalAlign=middle;resizable=0;points=[];" vertex="1" connectable="0" parent="1">
          <mxGeometry x="100" y="530.0689655172414" as="geometry" />
        </mxCell>
        <mxCell id="m41DjZXXODaxuGsRqDAt-45" value="&lt;div&gt;Remove all elevators that are not self.&lt;br data-end=&quot;42&quot; data-start=&quot;39&quot;&gt;&lt;br/&gt;Set self as master.&lt;/div&gt;" style="rounded=0;whiteSpace=wrap;html=1;" vertex="1" parent="1">
          <mxGeometry x="190" y="450" width="120" height="60" as="geometry" />
        </mxCell>
        <mxCell id="m41DjZXXODaxuGsRqDAt-46" value="" style="endArrow=classic;html=1;rounded=0;exitX=1;exitY=0.5;exitDx=0;exitDy=0;" edge="1" parent="1" source="m41DjZXXODaxuGsRqDAt-45" target="m41DjZXXODaxuGsRqDAt-47">
          <mxGeometry width="50" height="50" relative="1" as="geometry">
            <mxPoint x="210" y="570" as="sourcePoint" />
            <mxPoint x="350" y="480" as="targetPoint" />
          </mxGeometry>
        </mxCell>
        <mxCell id="m41DjZXXODaxuGsRqDAt-47" value="wv_edited = true" style="rounded=0;whiteSpace=wrap;html=1;" vertex="1" parent="1">
          <mxGeometry x="350" y="460" width="120" height="40" as="geometry" />
        </mxCell>
        <mxCell id="m41DjZXXODaxuGsRqDAt-48" value="" style="endArrow=classic;html=1;rounded=0;exitX=1;exitY=0.5;exitDx=0;exitDy=0;" edge="1" parent="1" source="m41DjZXXODaxuGsRqDAt-47">
          <mxGeometry width="50" height="50" relative="1" as="geometry">
            <mxPoint x="210" y="570" as="sourcePoint" />
            <mxPoint x="110" y="540" as="targetPoint" />
            <Array as="points">
              <mxPoint x="490" y="480" />
              <mxPoint x="490" y="540" />
            </Array>
          </mxGeometry>
        </mxCell>
        <mxCell id="m41DjZXXODaxuGsRqDAt-49" value="Yes" style="edgeLabel;html=1;align=center;verticalAlign=middle;resizable=0;points=[];" vertex="1" connectable="0" parent="1">
          <mxGeometry x="160.37931034482767" y="589.9999999999999" as="geometry" />
        </mxCell>
        <mxCell id="m41DjZXXODaxuGsRqDAt-50" value="No" style="edgeLabel;html=1;align=center;verticalAlign=middle;resizable=0;points=[];" vertex="1" connectable="0" parent="1">
          <mxGeometry x="100" y="650.0689655172414" as="geometry" />
        </mxCell>
        <mxCell id="m41DjZXXODaxuGsRqDAt-51" value="Does the slave exist in the WorldView?" style="rounded=0;whiteSpace=wrap;html=1;" vertex="1" parent="1">
          <mxGeometry x="190" y="570" width="120" height="60" as="geometry" />
        </mxCell>
        <mxCell id="m41DjZXXODaxuGsRqDAt-52" value="wv_edited = true" style="rounded=0;whiteSpace=wrap;html=1;" vertex="1" parent="1">
          <mxGeometry x="560" y="580" width="120" height="40" as="geometry" />
        </mxCell>
        <mxCell id="m41DjZXXODaxuGsRqDAt-53" value="" style="endArrow=classic;html=1;rounded=0;exitX=1;exitY=0.5;exitDx=0;exitDy=0;" edge="1" parent="1" source="m41DjZXXODaxuGsRqDAt-52">
          <mxGeometry width="50" height="50" relative="1" as="geometry">
            <mxPoint x="210" y="690" as="sourcePoint" />
            <mxPoint x="110" y="660" as="targetPoint" />
            <Array as="points">
              <mxPoint x="690" y="600" />
              <mxPoint x="690" y="660" />
              <mxPoint x="490" y="660" />
            </Array>
          </mxGeometry>
        </mxCell>
        <mxCell id="m41DjZXXODaxuGsRqDAt-54" value="Yes" style="edgeLabel;html=1;align=center;verticalAlign=middle;resizable=0;points=[];" vertex="1" connectable="0" parent="1">
          <mxGeometry x="160.37931034482767" y="709.9999999999999" as="geometry" />
        </mxCell>
        <mxCell id="m41DjZXXODaxuGsRqDAt-55" value="No" style="edgeLabel;html=1;align=center;verticalAlign=middle;resizable=0;points=[];" vertex="1" connectable="0" parent="1">
          <mxGeometry x="100" y="770.0689655172414" as="geometry" />
        </mxCell>
        <mxCell id="m41DjZXXODaxuGsRqDAt-56" value="remove slave from WV" style="rounded=0;whiteSpace=wrap;html=1;" vertex="1" parent="1">
          <mxGeometry x="190" y="690" width="120" height="60" as="geometry" />
        </mxCell>
        <mxCell id="m41DjZXXODaxuGsRqDAt-57" value="" style="endArrow=classic;html=1;rounded=0;exitX=1;exitY=0.5;exitDx=0;exitDy=0;" edge="1" parent="1" source="m41DjZXXODaxuGsRqDAt-56" target="m41DjZXXODaxuGsRqDAt-58">
          <mxGeometry width="50" height="50" relative="1" as="geometry">
            <mxPoint x="210" y="810" as="sourcePoint" />
            <mxPoint x="350" y="720" as="targetPoint" />
          </mxGeometry>
        </mxCell>
        <mxCell id="m41DjZXXODaxuGsRqDAt-58" value="wv_edited = true" style="rounded=0;whiteSpace=wrap;html=1;" vertex="1" parent="1">
          <mxGeometry x="350" y="700" width="120" height="40" as="geometry" />
        </mxCell>
        <mxCell id="m41DjZXXODaxuGsRqDAt-59" value="" style="endArrow=classic;html=1;rounded=0;exitX=1;exitY=0.5;exitDx=0;exitDy=0;" edge="1" parent="1" source="m41DjZXXODaxuGsRqDAt-58">
          <mxGeometry width="50" height="50" relative="1" as="geometry">
            <mxPoint x="210" y="810" as="sourcePoint" />
            <mxPoint x="110" y="780" as="targetPoint" />
            <Array as="points">
              <mxPoint x="490" y="720" />
              <mxPoint x="490" y="780" />
            </Array>
          </mxGeometry>
        </mxCell>
        <mxCell id="m41DjZXXODaxuGsRqDAt-60" value="Yes" style="edgeLabel;html=1;align=center;verticalAlign=middle;resizable=0;points=[];" vertex="1" connectable="0" parent="1">
          <mxGeometry x="160.37931034482767" y="829.9999999999999" as="geometry" />
        </mxCell>
        <mxCell id="m41DjZXXODaxuGsRqDAt-61" value="No" style="edgeLabel;html=1;align=center;verticalAlign=middle;resizable=0;points=[];" vertex="1" connectable="0" parent="1">
          <mxGeometry x="100" y="890.0689655172414" as="geometry" />
        </mxCell>
        <mxCell id="m41DjZXXODaxuGsRqDAt-62" value="Update the local channel for the WorldView." style="rounded=0;whiteSpace=wrap;html=1;" vertex="1" parent="1">
          <mxGeometry x="190" y="810" width="120" height="60" as="geometry" />
        </mxCell>
        <mxCell id="m41DjZXXODaxuGsRqDAt-63" value="" style="endArrow=classic;html=1;rounded=0;exitX=1;exitY=0.5;exitDx=0;exitDy=0;" edge="1" parent="1" source="m41DjZXXODaxuGsRqDAt-62" target="m41DjZXXODaxuGsRqDAt-64">
          <mxGeometry width="50" height="50" relative="1" as="geometry">
            <mxPoint x="210" y="930" as="sourcePoint" />
            <mxPoint x="350" y="840" as="targetPoint" />
          </mxGeometry>
        </mxCell>
        <mxCell id="m41DjZXXODaxuGsRqDAt-64" value="wv_edited = false" style="rounded=0;whiteSpace=wrap;html=1;" vertex="1" parent="1">
          <mxGeometry x="350" y="820" width="120" height="40" as="geometry" />
        </mxCell>
        <mxCell id="m41DjZXXODaxuGsRqDAt-65" value="" style="endArrow=classic;html=1;rounded=0;exitX=1;exitY=0.5;exitDx=0;exitDy=0;" edge="1" parent="1" source="m41DjZXXODaxuGsRqDAt-64">
          <mxGeometry width="50" height="50" relative="1" as="geometry">
            <mxPoint x="210" y="930" as="sourcePoint" />
            <mxPoint x="110" y="900" as="targetPoint" />
            <Array as="points">
              <mxPoint x="490" y="840" />
              <mxPoint x="490" y="900" />
            </Array>
          </mxGeometry>
        </mxCell>
        <mxCell id="m41DjZXXODaxuGsRqDAt-66" value="" style="endArrow=classic;html=1;rounded=0;exitX=1;exitY=0.167;exitDx=0;exitDy=0;exitPerimeter=0;" edge="1" parent="1" source="m41DjZXXODaxuGsRqDAt-51">
          <mxGeometry width="50" height="50" relative="1" as="geometry">
            <mxPoint x="310" y="570" as="sourcePoint" />
            <mxPoint x="340" y="580" as="targetPoint" />
          </mxGeometry>
        </mxCell>
        <mxCell id="m41DjZXXODaxuGsRqDAt-67" value="No" style="edgeLabel;html=1;align=center;verticalAlign=middle;resizable=0;points=[];" vertex="1" connectable="0" parent="m41DjZXXODaxuGsRqDAt-66">
          <mxGeometry x="-0.0827" y="1" relative="1" as="geometry">
            <mxPoint x="-4" y="-9" as="offset" />
          </mxGeometry>
        </mxCell>
        <mxCell id="m41DjZXXODaxuGsRqDAt-68" value="add&lt;div&gt;&amp;nbsp;as-is&lt;/div&gt;" style="rounded=0;whiteSpace=wrap;html=1;" vertex="1" parent="1">
          <mxGeometry x="340" y="570" width="40" height="30" as="geometry" />
        </mxCell>
        <mxCell id="m41DjZXXODaxuGsRqDAt-69" value="Update the slaveâ€™s statuses and button states." style="rounded=0;whiteSpace=wrap;html=1;" vertex="1" parent="1">
          <mxGeometry x="420" y="570" width="120" height="60" as="geometry" />
        </mxCell>
        <mxCell id="m41DjZXXODaxuGsRqDAt-70" value="" style="endArrow=classic;html=1;rounded=0;exitX=1;exitY=0.75;exitDx=0;exitDy=0;entryX=0;entryY=0.75;entryDx=0;entryDy=0;" edge="1" parent="1" source="m41DjZXXODaxuGsRqDAt-51" target="m41DjZXXODaxuGsRqDAt-69">
          <mxGeometry width="50" height="50" relative="1" as="geometry">
            <mxPoint x="210" y="600" as="sourcePoint" />
            <mxPoint x="260" y="550" as="targetPoint" />
          </mxGeometry>
        </mxCell>
        <mxCell id="m41DjZXXODaxuGsRqDAt-71" value="Yes" style="edgeLabel;html=1;align=center;verticalAlign=middle;resizable=0;points=[];" vertex="1" connectable="0" parent="m41DjZXXODaxuGsRqDAt-70">
          <mxGeometry x="-0.0199" y="-1" relative="1" as="geometry">
            <mxPoint x="-34" y="-6" as="offset" />
          </mxGeometry>
        </mxCell>
        <mxCell id="m41DjZXXODaxuGsRqDAt-72" value="" style="endArrow=classic;html=1;rounded=0;exitX=1;exitY=0.5;exitDx=0;exitDy=0;" edge="1" parent="1" source="m41DjZXXODaxuGsRqDAt-68">
          <mxGeometry width="50" height="50" relative="1" as="geometry">
            <mxPoint x="210" y="600" as="sourcePoint" />
            <mxPoint x="390" y="610" as="targetPoint" />
            <Array as="points">
              <mxPoint x="390" y="585" />
            </Array>
          </mxGeometry>
        </mxCell>
        <mxCell id="m41DjZXXODaxuGsRqDAt-73" value="" style="endArrow=classic;html=1;rounded=0;exitX=1;exitY=0.5;exitDx=0;exitDy=0;entryX=0;entryY=0.5;entryDx=0;entryDy=0;" edge="1" parent="1" source="m41DjZXXODaxuGsRqDAt-69" target="m41DjZXXODaxuGsRqDAt-52">
          <mxGeometry width="50" height="50" relative="1" as="geometry">
            <mxPoint x="210" y="600" as="sourcePoint" />
            <mxPoint x="260" y="550" as="targetPoint" />
          </mxGeometry>
        </mxCell>
      </root>
    </mxGraphModel>
  </diagram>
  <diagram id="RKuIxvvGTHE_JxbLe_so" name="elevator_logic">
    <mxGraphModel dx="2008" dy="1198" grid="1" gridSize="10" guides="1" tooltips="1" connect="1" arrows="1" fold="1" page="1" pageScale="1" pageWidth="850" pageHeight="1100" math="0" shadow="0">
      <root>
        <mxCell id="0" />
        <mxCell id="1" parent="0" />
        <mxCell id="PDjiy5bOwknpaqw20zo5-4" value="" style="edgeStyle=orthogonalEdgeStyle;rounded=0;orthogonalLoop=1;jettySize=auto;html=1;" edge="1" parent="1" source="PDjiy5bOwknpaqw20zo5-1" target="PDjiy5bOwknpaqw20zo5-3">
          <mxGeometry relative="1" as="geometry" />
        </mxCell>
        <mxCell id="PDjiy5bOwknpaqw20zo5-6" value="" style="edgeStyle=orthogonalEdgeStyle;rounded=0;orthogonalLoop=1;jettySize=auto;html=1;" edge="1" parent="1" source="PDjiy5bOwknpaqw20zo5-1" target="PDjiy5bOwknpaqw20zo5-5">
          <mxGeometry relative="1" as="geometry" />
        </mxCell>
        <mxCell id="PDjiy5bOwknpaqw20zo5-1" value="Run locla elevator&lt;div&gt;(subscribe on llocal elev msg)&lt;/div&gt;" style="rounded=1;whiteSpace=wrap;html=1;" vertex="1" parent="1">
          <mxGeometry x="350" y="20" width="145" height="80" as="geometry" />
        </mxCell>
        <mxCell id="PDjiy5bOwknpaqw20zo5-10" value="" style="edgeStyle=orthogonalEdgeStyle;rounded=0;orthogonalLoop=1;jettySize=auto;html=1;" edge="1" parent="1" source="PDjiy5bOwknpaqw20zo5-3" target="PDjiy5bOwknpaqw20zo5-9">
          <mxGeometry relative="1" as="geometry" />
        </mxCell>
        <mxCell id="PDjiy5bOwknpaqw20zo5-3" value="Starts handle_elevaator" style="whiteSpace=wrap;html=1;rounded=1;" vertex="1" parent="1">
          <mxGeometry x="130" y="190" width="120" height="60" as="geometry" />
        </mxCell>
        <mxCell id="PDjiy5bOwknpaqw20zo5-8" value="" style="edgeStyle=orthogonalEdgeStyle;rounded=0;orthogonalLoop=1;jettySize=auto;html=1;" edge="1" parent="1" source="PDjiy5bOwknpaqw20zo5-5" target="PDjiy5bOwknpaqw20zo5-7">
          <mxGeometry relative="1" as="geometry" />
        </mxCell>
        <mxCell id="PDjiy5bOwknpaqw20zo5-5" value="start light task&lt;div&gt;(subscribes on wv)&lt;/div&gt;" style="whiteSpace=wrap;html=1;rounded=1;" vertex="1" parent="1">
          <mxGeometry x="610" y="190" width="120" height="60" as="geometry" />
        </mxCell>
        <mxCell id="PDjiy5bOwknpaqw20zo5-7" value="Sets lights&amp;nbsp;&lt;div&gt;according&amp;nbsp;&lt;div&gt;to worldviev&lt;/div&gt;&lt;/div&gt;" style="rhombus;whiteSpace=wrap;html=1;rounded=1;" vertex="1" parent="1">
          <mxGeometry x="605" y="290" width="130" height="120" as="geometry" />
        </mxCell>
        <mxCell id="PDjiy5bOwknpaqw20zo5-12" value="" style="edgeStyle=orthogonalEdgeStyle;rounded=0;orthogonalLoop=1;jettySize=auto;html=1;" edge="1" parent="1" source="PDjiy5bOwknpaqw20zo5-9" target="PDjiy5bOwknpaqw20zo5-11">
          <mxGeometry relative="1" as="geometry" />
        </mxCell>
        <mxCell id="PDjiy5bOwknpaqw20zo5-9" value="Subscribs on:&lt;div&gt;wv,&lt;/div&gt;&lt;div&gt;local_elev&lt;/div&gt;&lt;div&gt;&lt;br&gt;&lt;/div&gt;&lt;div&gt;publish on:&lt;/div&gt;&lt;div&gt;elev_state&lt;/div&gt;" style="shape=hexagon;perimeter=hexagonPerimeter2;whiteSpace=wrap;html=1;fixedSize=1;rounded=1;" vertex="1" parent="1">
          <mxGeometry x="130" y="250" width="120" height="130" as="geometry" />
        </mxCell>
        <mxCell id="PDjiy5bOwknpaqw20zo5-16" value="" style="edgeStyle=orthogonalEdgeStyle;rounded=0;orthogonalLoop=1;jettySize=auto;html=1;" edge="1" parent="1" source="PDjiy5bOwknpaqw20zo5-11" target="PDjiy5bOwknpaqw20zo5-15">
          <mxGeometry relative="1" as="geometry" />
        </mxCell>
        <mxCell id="PDjiy5bOwknpaqw20zo5-11" value="FSM" style="whiteSpace=wrap;html=1;rounded=1;" vertex="1" parent="1">
          <mxGeometry x="130" y="500" width="120" height="60" as="geometry" />
        </mxCell>
        <mxCell id="PDjiy5bOwknpaqw20zo5-17" style="edgeStyle=orthogonalEdgeStyle;rounded=0;orthogonalLoop=1;jettySize=auto;html=1;exitX=1;exitY=0.5;exitDx=0;exitDy=0;entryX=1;entryY=0.5;entryDx=0;entryDy=0;" edge="1" parent="1" source="PDjiy5bOwknpaqw20zo5-15" target="PDjiy5bOwknpaqw20zo5-11">
          <mxGeometry relative="1" as="geometry">
            <Array as="points">
              <mxPoint x="300" y="670" />
              <mxPoint x="300" y="530" />
            </Array>
          </mxGeometry>
        </mxCell>
        <mxCell id="PDjiy5bOwknpaqw20zo5-15" value="Update and send staes to subscribers" style="rounded=1;whiteSpace=wrap;html=1;" vertex="1" parent="1">
          <mxGeometry x="130" y="640" width="120" height="60" as="geometry" />
        </mxCell>
      </root>
    </mxGraphModel>
  </diagram>
  <diagram id="1PzqXcL5_bDwDAXj777N" name="FSM">
    <mxGraphModel dx="2008" dy="1198" grid="1" gridSize="10" guides="1" tooltips="1" connect="1" arrows="1" fold="1" page="1" pageScale="1" pageWidth="850" pageHeight="1100" math="0" shadow="0">
      <root>
        <mxCell id="0" />
        <mxCell id="1" parent="0" />
        <mxCell id="NjdWqtvcr5dPOdpqv_qd-3" value="" style="edgeStyle=orthogonalEdgeStyle;rounded=0;orthogonalLoop=1;jettySize=auto;html=1;" edge="1" parent="1" source="NjdWqtvcr5dPOdpqv_qd-1" target="NjdWqtvcr5dPOdpqv_qd-2">
          <mxGeometry relative="1" as="geometry" />
        </mxCell>
        <mxCell id="NjdWqtvcr5dPOdpqv_qd-4" value="Task" style="edgeLabel;html=1;align=center;verticalAlign=middle;resizable=0;points=[];" vertex="1" connectable="0" parent="NjdWqtvcr5dPOdpqv_qd-3">
          <mxGeometry x="-0.168" relative="1" as="geometry">
            <mxPoint as="offset" />
          </mxGeometry>
        </mxCell>
        <mxCell id="NjdWqtvcr5dPOdpqv_qd-1" value="IDLE" style="ellipse;whiteSpace=wrap;html=1;aspect=fixed;fillColor=#d5e8d4;strokeColor=#82b366;" vertex="1" parent="1">
          <mxGeometry x="50" y="130" width="80" height="80" as="geometry" />
        </mxCell>
        <mxCell id="NjdWqtvcr5dPOdpqv_qd-7" style="edgeStyle=orthogonalEdgeStyle;rounded=0;orthogonalLoop=1;jettySize=auto;html=1;entryX=0.5;entryY=0;entryDx=0;entryDy=0;" edge="1" parent="1" source="NjdWqtvcr5dPOdpqv_qd-2" target="NjdWqtvcr5dPOdpqv_qd-5">
          <mxGeometry relative="1" as="geometry" />
        </mxCell>
        <mxCell id="NjdWqtvcr5dPOdpqv_qd-20" value="VALID FLORSENSOR" style="edgeLabel;html=1;align=center;verticalAlign=middle;resizable=0;points=[];" vertex="1" connectable="0" parent="NjdWqtvcr5dPOdpqv_qd-7">
          <mxGeometry x="0.5846" y="-1" relative="1" as="geometry">
            <mxPoint x="1" y="38" as="offset" />
          </mxGeometry>
        </mxCell>
        <mxCell id="NjdWqtvcr5dPOdpqv_qd-22" value="NEW FLOORSENSOR" style="edgeLabel;html=1;align=center;verticalAlign=middle;resizable=0;points=[];" vertex="1" connectable="0" parent="NjdWqtvcr5dPOdpqv_qd-7">
          <mxGeometry x="-0.817" y="1" relative="1" as="geometry">
            <mxPoint x="33" as="offset" />
          </mxGeometry>
        </mxCell>
        <mxCell id="NjdWqtvcr5dPOdpqv_qd-34" style="edgeStyle=orthogonalEdgeStyle;rounded=0;orthogonalLoop=1;jettySize=auto;html=1;exitX=0.5;exitY=1;exitDx=0;exitDy=0;entryX=1;entryY=0.5;entryDx=0;entryDy=0;" edge="1" parent="1" source="NjdWqtvcr5dPOdpqv_qd-2" target="NjdWqtvcr5dPOdpqv_qd-40">
          <mxGeometry relative="1" as="geometry">
            <mxPoint x="420" y="300" as="targetPoint" />
          </mxGeometry>
        </mxCell>
        <mxCell id="NjdWqtvcr5dPOdpqv_qd-35" value="TRAVEL TIMEOUT/&lt;div&gt;MOTORSTOP&lt;/div&gt;" style="edgeLabel;html=1;align=center;verticalAlign=middle;resizable=0;points=[];" vertex="1" connectable="0" parent="NjdWqtvcr5dPOdpqv_qd-34">
          <mxGeometry x="-0.2118" y="3" relative="1" as="geometry">
            <mxPoint x="-3" y="-27" as="offset" />
          </mxGeometry>
        </mxCell>
        <mxCell id="NjdWqtvcr5dPOdpqv_qd-2" value="MOVING" style="rounded=1;whiteSpace=wrap;html=1;fillColor=#dae8fc;strokeColor=#6c8ebf;" vertex="1" parent="1">
          <mxGeometry x="340" y="140" width="120" height="60" as="geometry" />
        </mxCell>
        <mxCell id="NjdWqtvcr5dPOdpqv_qd-11" style="edgeStyle=orthogonalEdgeStyle;rounded=0;orthogonalLoop=1;jettySize=auto;html=1;exitX=0.5;exitY=1;exitDx=0;exitDy=0;entryX=1;entryY=0.5;entryDx=0;entryDy=0;" edge="1" parent="1" source="NjdWqtvcr5dPOdpqv_qd-5" target="NjdWqtvcr5dPOdpqv_qd-8">
          <mxGeometry relative="1" as="geometry" />
        </mxCell>
        <mxCell id="NjdWqtvcr5dPOdpqv_qd-5" value="FLOOR ARIVAL" style="rounded=1;whiteSpace=wrap;html=1;fillColor=#fff2cc;strokeColor=#d6b656;" vertex="1" parent="1">
          <mxGeometry x="680" y="280" width="120" height="60" as="geometry" />
        </mxCell>
        <mxCell id="NjdWqtvcr5dPOdpqv_qd-15" value="" style="edgeStyle=orthogonalEdgeStyle;rounded=0;orthogonalLoop=1;jettySize=auto;html=1;" edge="1" parent="1" source="NjdWqtvcr5dPOdpqv_qd-8" target="NjdWqtvcr5dPOdpqv_qd-14">
          <mxGeometry relative="1" as="geometry" />
        </mxCell>
        <mxCell id="NjdWqtvcr5dPOdpqv_qd-17" value="DOOR TIMOUT" style="edgeLabel;html=1;align=center;verticalAlign=middle;resizable=0;points=[];" vertex="1" connectable="0" parent="NjdWqtvcr5dPOdpqv_qd-15">
          <mxGeometry x="-0.0476" y="3" relative="1" as="geometry">
            <mxPoint y="-3" as="offset" />
          </mxGeometry>
        </mxCell>
        <mxCell id="NjdWqtvcr5dPOdpqv_qd-8" value="DOOR OPEN" style="whiteSpace=wrap;html=1;rounded=1;fillColor=#fff2cc;strokeColor=#d6b656;" vertex="1" parent="1">
          <mxGeometry x="600" y="450" width="120" height="60" as="geometry" />
        </mxCell>
        <mxCell id="NjdWqtvcr5dPOdpqv_qd-16" style="edgeStyle=orthogonalEdgeStyle;rounded=0;orthogonalLoop=1;jettySize=auto;html=1;" edge="1" parent="1" source="NjdWqtvcr5dPOdpqv_qd-14" target="NjdWqtvcr5dPOdpqv_qd-1">
          <mxGeometry relative="1" as="geometry" />
        </mxCell>
        <mxCell id="NjdWqtvcr5dPOdpqv_qd-37" value="DOOR CLOSED" style="edgeLabel;html=1;align=center;verticalAlign=middle;resizable=0;points=[];" vertex="1" connectable="0" parent="NjdWqtvcr5dPOdpqv_qd-16">
          <mxGeometry x="-0.6619" y="4" relative="1" as="geometry">
            <mxPoint as="offset" />
          </mxGeometry>
        </mxCell>
        <mxCell id="NjdWqtvcr5dPOdpqv_qd-38" style="edgeStyle=orthogonalEdgeStyle;rounded=0;orthogonalLoop=1;jettySize=auto;html=1;exitX=0.5;exitY=0;exitDx=0;exitDy=0;entryX=1;entryY=0.5;entryDx=0;entryDy=0;" edge="1" parent="1" source="NjdWqtvcr5dPOdpqv_qd-14" target="NjdWqtvcr5dPOdpqv_qd-40">
          <mxGeometry relative="1" as="geometry">
            <mxPoint x="420" y="300" as="targetPoint" />
          </mxGeometry>
        </mxCell>
        <mxCell id="NjdWqtvcr5dPOdpqv_qd-39" value="OBSTRUCTION" style="edgeLabel;html=1;align=center;verticalAlign=middle;resizable=0;points=[];" vertex="1" connectable="0" parent="NjdWqtvcr5dPOdpqv_qd-38">
          <mxGeometry x="-0.2909" y="-3" relative="1" as="geometry">
            <mxPoint as="offset" />
          </mxGeometry>
        </mxCell>
        <mxCell id="NjdWqtvcr5dPOdpqv_qd-14" value="ON DORTIMOUT" style="whiteSpace=wrap;html=1;rounded=1;fillColor=#dae8fc;strokeColor=#6c8ebf;" vertex="1" parent="1">
          <mxGeometry x="340" y="450" width="120" height="60" as="geometry" />
        </mxCell>
        <mxCell id="NjdWqtvcr5dPOdpqv_qd-29" style="edgeStyle=orthogonalEdgeStyle;rounded=0;orthogonalLoop=1;jettySize=auto;html=1;exitX=0.5;exitY=0;exitDx=0;exitDy=0;entryX=0.5;entryY=0;entryDx=0;entryDy=0;" edge="1" parent="1" source="NjdWqtvcr5dPOdpqv_qd-21" target="NjdWqtvcr5dPOdpqv_qd-2">
          <mxGeometry relative="1" as="geometry" />
        </mxCell>
        <mxCell id="NjdWqtvcr5dPOdpqv_qd-30" value="NOT VALID FLOOR" style="edgeLabel;html=1;align=center;verticalAlign=middle;resizable=0;points=[];" vertex="1" connectable="0" parent="NjdWqtvcr5dPOdpqv_qd-29">
          <mxGeometry x="0.4375" y="-4" relative="1" as="geometry">
            <mxPoint x="66" y="4" as="offset" />
          </mxGeometry>
        </mxCell>
        <mxCell id="NjdWqtvcr5dPOdpqv_qd-21" value="ON FLOOR ARIVAL" style="rounded=1;whiteSpace=wrap;html=1;fillColor=#fff2cc;strokeColor=#d6b656;" vertex="1" parent="1">
          <mxGeometry x="600" y="140" width="120" height="60" as="geometry" />
        </mxCell>
        <mxCell id="NjdWqtvcr5dPOdpqv_qd-50" style="edgeStyle=orthogonalEdgeStyle;rounded=0;orthogonalLoop=1;jettySize=auto;html=1;exitX=0.5;exitY=0;exitDx=0;exitDy=0;entryX=0;entryY=0.75;entryDx=0;entryDy=0;" edge="1" parent="1" source="NjdWqtvcr5dPOdpqv_qd-40" target="NjdWqtvcr5dPOdpqv_qd-2">
          <mxGeometry relative="1" as="geometry" />
        </mxCell>
        <mxCell id="NjdWqtvcr5dPOdpqv_qd-51" value="FLOOR ARIVAL" style="edgeLabel;html=1;align=center;verticalAlign=middle;resizable=0;points=[];" vertex="1" connectable="0" parent="NjdWqtvcr5dPOdpqv_qd-50">
          <mxGeometry x="-0.4667" y="-2" relative="1" as="geometry">
            <mxPoint as="offset" />
          </mxGeometry>
        </mxCell>
        <mxCell id="NjdWqtvcr5dPOdpqv_qd-52" style="edgeStyle=orthogonalEdgeStyle;rounded=0;orthogonalLoop=1;jettySize=auto;html=1;" edge="1" parent="1" source="NjdWqtvcr5dPOdpqv_qd-40">
          <mxGeometry relative="1" as="geometry">
            <mxPoint x="90" y="310" as="targetPoint" />
          </mxGeometry>
        </mxCell>
        <mxCell id="NjdWqtvcr5dPOdpqv_qd-53" value="NO&amp;nbsp;&lt;div&gt;OBSTRUCTION&lt;/div&gt;" style="edgeLabel;html=1;align=center;verticalAlign=middle;resizable=0;points=[];" vertex="1" connectable="0" parent="NjdWqtvcr5dPOdpqv_qd-52">
          <mxGeometry x="-0.116" y="-3" relative="1" as="geometry">
            <mxPoint as="offset" />
          </mxGeometry>
        </mxCell>
        <mxCell id="NjdWqtvcr5dPOdpqv_qd-40" value="ERROR" style="shape=hexagon;perimeter=hexagonPerimeter2;whiteSpace=wrap;html=1;fixedSize=1;fillColor=#f8cecc;strokeColor=#b85450;" vertex="1" parent="1">
          <mxGeometry x="230" y="270" width="120" height="80" as="geometry" />
        </mxCell>
      </root>
    </mxGraphModel>
  </diagram>
</mxfile>
